<?xml version="1.0" standalone="no"?><svg xmlns="http://www.w3.org/2000/svg" viewBox="0 0 1440 320"><path fill="#0099ff" fill-opacity="1" d="M0,64L24,69.3C48,75,96,85,144,96C192,107,240,117,288,149.3C336,181,384,235,432,256C480,277,528,267,576,250.7C624,235,672,213,720,213.3C768,213,816,235,864,250.7C912,267,960,277,1008,282.7C1056,288,1104,288,1152,266.7C1200,245,1248,203,1296,192C1344,181,1392,203,1416,213.3L1440,224L1440,320L1416,320C1392,320,1344,320,1296,320C1248,320,1200,320,1152,320C1104,320,1056,320,1008,320C960,320,912,320,864,320C816,320,768,320,720,320C672,320,624,320,576,320C528,320,480,320,432,320C384,320,336,320,288,320C240,320,192,320,144,320C96,320,48,320,24,320L0,320Z"></path></svg>